<?xml version="1.0" encoding="utf-8" standalone="no"?>
<!DOCTYPE svg PUBLIC "-//W3C//DTD SVG 1.1//EN"
  "http://www.w3.org/Graphics/SVG/1.1/DTD/svg11.dtd">
<svg xmlns:xlink="http://www.w3.org/1999/xlink" width="576pt" height="216pt" viewBox="0 0 576 216" xmlns="http://www.w3.org/2000/svg" version="1.1">
 <metadata>
  <rdf:RDF xmlns:dc="http://purl.org/dc/elements/1.1/" xmlns:cc="http://creativecommons.org/ns#" xmlns:rdf="http://www.w3.org/1999/02/22-rdf-syntax-ns#">
   <cc:Work>
    <dc:type rdf:resource="http://purl.org/dc/dcmitype/StillImage"/>
    <dc:date>2023-02-11T03:36:14.403455</dc:date>
    <dc:format>image/svg+xml</dc:format>
    <dc:creator>
     <cc:Agent>
      <dc:title>Matplotlib v3.5.3, https://matplotlib.org/</dc:title>
     </cc:Agent>
    </dc:creator>
   </cc:Work>
  </rdf:RDF>
 </metadata>
 <defs>
  <style type="text/css">*{stroke-linejoin: round; stroke-linecap: butt}</style>
 </defs>
 <g id="figure_1">
  <g id="patch_1">
   <path d="M 0 216 
L 576 216 
L 576 0 
L 0 0 
L 0 216 
z
" style="fill: none"/>
  </g>
  <g id="axes_1">
   <g id="patch_2">
    <path d="M 72 192.24 
L 518.4 192.24 
L 518.4 25.92 
L 72 25.92 
L 72 192.24 
z
" style="fill: none"/>
   </g>
   <g id="PathCollection_1">
    <defs>
     <path id="mb72a226194" d="M 0 3 
C 0.795609 3 1.55874 2.683901 2.12132 2.12132 
C 2.683901 1.55874 3 0.795609 3 0 
C 3 -0.795609 2.683901 -1.55874 2.12132 -2.12132 
C 1.55874 -2.683901 0.795609 -3 0 -3 
C -0.795609 -3 -1.55874 -2.683901 -2.12132 -2.12132 
C -2.683901 -1.55874 -3 -0.795609 -3 0 
C -3 0.795609 -2.683901 1.55874 -2.12132 2.12132 
C -1.55874 2.683901 -0.795609 3 0 3 
z
"/>
    </defs>
    <g clip-path="url(#p35113fac4e)">
     <use xlink:href="#mb72a226194" x="116.64" y="131.256" style="fill: #ff0000; fill-opacity: 0.25"/>
    </g>
   </g>
   <g id="PathCollection_2">
    <g clip-path="url(#p35113fac4e)">
     <use xlink:href="#mb72a226194" x="205.92" y="88.012804" style="fill: #ff0000; fill-opacity: 0.25"/>
    </g>
   </g>
   <g id="PathCollection_3">
    <g clip-path="url(#p35113fac4e)">
     <use xlink:href="#mb72a226194" x="295.2" y="119.0592" style="fill: #ff0000; fill-opacity: 0.25"/>
    </g>
   </g>
   <g id="PathCollection_4">
    <g clip-path="url(#p35113fac4e)">
     <use xlink:href="#mb72a226194" x="384.48" y="162.302399" style="fill: #ff0000; fill-opacity: 0.25"/>
    </g>
   </g>
   <g id="PathCollection_5">
    <g clip-path="url(#p35113fac4e)">
     <use xlink:href="#mb72a226194" x="473.76" y="148.996799" style="fill: #ff0000; fill-opacity: 0.25"/>
    </g>
   </g>
   <g id="PathCollection_6">
    <g clip-path="url(#p35113fac4e)">
     <use xlink:href="#mb72a226194" x="116.64" y="126.8208" style="fill: #ff0000; fill-opacity: 0.25"/>
    </g>
   </g>
   <g id="PathCollection_7">
    <g clip-path="url(#p35113fac4e)">
     <use xlink:href="#mb72a226194" x="205.92" y="86.904" style="fill: #ff0000; fill-opacity: 0.25"/>
    </g>
   </g>
   <g id="PathCollection_8">
    <g clip-path="url(#p35113fac4e)">
     <use xlink:href="#mb72a226194" x="295.2" y="110.1888" style="fill: #ff0000; fill-opacity: 0.25"/>
    </g>
   </g>
   <g id="PathCollection_9">
    <g clip-path="url(#p35113fac4e)">
     <use xlink:href="#mb72a226194" x="384.48" y="155.6496" style="fill: #ff0000; fill-opacity: 0.25"/>
    </g>
   </g>
   <g id="PathCollection_10">
    <g clip-path="url(#p35113fac4e)">
     <use xlink:href="#mb72a226194" x="473.76" y="134.5824" style="fill: #ff0000; fill-opacity: 0.25"/>
    </g>
   </g>
   <g id="PathCollection_11">
    <g clip-path="url(#p35113fac4e)">
     <use xlink:href="#mb72a226194" x="116.64" y="122.385599" style="fill: #ff0000; fill-opacity: 0.25"/>
    </g>
   </g>
   <g id="PathCollection_12">
    <g clip-path="url(#p35113fac4e)">
     <use xlink:href="#mb72a226194" x="205.92" y="76.924798" style="fill: #ff0000; fill-opacity: 0.25"/>
    </g>
   </g>
   <g id="PathCollection_13">
    <g clip-path="url(#p35113fac4e)">
     <use xlink:href="#mb72a226194" x="295.2" y="101.318397" style="fill: #ff0000; fill-opacity: 0.25"/>
    </g>
   </g>
   <g id="PathCollection_14">
    <g clip-path="url(#p35113fac4e)">
     <use xlink:href="#mb72a226194" x="384.48" y="153.432" style="fill: #ff0000; fill-opacity: 0.25"/>
    </g>
   </g>
   <g id="PathCollection_15">
    <g clip-path="url(#p35113fac4e)">
     <use xlink:href="#mb72a226194" x="473.76" y="134.582399" style="fill: #ff0000; fill-opacity: 0.25"/>
    </g>
   </g>
   <g id="PathCollection_16">
    <g clip-path="url(#p35113fac4e)">
     <use xlink:href="#mb72a226194" x="116.64" y="114.624" style="fill: #ff0000; fill-opacity: 0.25"/>
    </g>
   </g>
   <g id="PathCollection_17">
    <g clip-path="url(#p35113fac4e)">
     <use xlink:href="#mb72a226194" x="205.92" y="74.707201" style="fill: #ff0000; fill-opacity: 0.25"/>
    </g>
   </g>
   <g id="PathCollection_18">
    <g clip-path="url(#p35113fac4e)">
     <use xlink:href="#mb72a226194" x="295.2" y="92.447996" style="fill: #ff0000; fill-opacity: 0.25"/>
    </g>
   </g>
   <g id="PathCollection_19">
    <g clip-path="url(#p35113fac4e)">
     <use xlink:href="#mb72a226194" x="384.48" y="127.929602" style="fill: #ff0000; fill-opacity: 0.25"/>
    </g>
   </g>
   <g id="PathCollection_20">
    <g clip-path="url(#p35113fac4e)">
     <use xlink:href="#mb72a226194" x="473.76" y="107.971203" style="fill: #ff0000; fill-opacity: 0.25"/>
    </g>
   </g>
   <g id="PathCollection_21">
    <g clip-path="url(#p35113fac4e)">
     <use xlink:href="#mb72a226194" x="116.64" y="154.540798" style="fill: #ff0000; fill-opacity: 0.25"/>
    </g>
   </g>
   <g id="PathCollection_22">
    <g clip-path="url(#p35113fac4e)">
     <use xlink:href="#mb72a226194" x="205.92" y="147.888001" style="fill: #ff0000; fill-opacity: 0.25"/>
    </g>
   </g>
   <g id="PathCollection_23">
    <g clip-path="url(#p35113fac4e)">
     <use xlink:href="#mb72a226194" x="295.2" y="139.0176" style="fill: #ff0000; fill-opacity: 0.25"/>
    </g>
   </g>
   <g id="PathCollection_24">
    <g clip-path="url(#p35113fac4e)">
     <use xlink:href="#mb72a226194" x="384.48" y="158.976001" style="fill: #ff0000; fill-opacity: 0.25"/>
    </g>
   </g>
   <g id="PathCollection_25">
    <g clip-path="url(#p35113fac4e)">
     <use xlink:href="#mb72a226194" x="473.76" y="157.867201" style="fill: #ff0000; fill-opacity: 0.25"/>
    </g>
   </g>
   <g id="PathCollection_26">
    <g clip-path="url(#p35113fac4e)">
     <use xlink:href="#mb72a226194" x="116.64" y="132.364798" style="fill: #ff0000; fill-opacity: 0.25"/>
    </g>
   </g>
   <g id="PathCollection_27">
    <g clip-path="url(#p35113fac4e)">
     <use xlink:href="#mb72a226194" x="205.92" y="104.644796" style="fill: #ff0000; fill-opacity: 0.25"/>
    </g>
   </g>
   <g id="PathCollection_28">
    <g clip-path="url(#p35113fac4e)">
     <use xlink:href="#mb72a226194" x="295.2" y="120.168003" style="fill: #ff0000; fill-opacity: 0.25"/>
    </g>
   </g>
   <g id="PathCollection_29">
    <g clip-path="url(#p35113fac4e)">
     <use xlink:href="#mb72a226194" x="384.48" y="157.867201" style="fill: #ff0000; fill-opacity: 0.25"/>
    </g>
   </g>
   <g id="PathCollection_30">
    <g clip-path="url(#p35113fac4e)">
     <use xlink:href="#mb72a226194" x="473.76" y="137.908801" style="fill: #ff0000; fill-opacity: 0.25"/>
    </g>
   </g>
   <g id="PathCollection_31">
    <path d="M 116.64 138.473601 
C 117.966015 138.473601 119.237899 137.946769 120.175534 137.009135 
C 121.113168 136.0715 121.64 134.799616 121.64 133.473601 
C 121.64 132.147585 121.113168 130.875701 120.175534 129.938067 
C 119.237899 129.000432 117.966015 128.473601 116.64 128.473601 
C 115.313985 128.473601 114.042101 129.000432 113.104466 129.938067 
C 112.166832 130.875701 111.64 132.147585 111.64 133.473601 
C 111.64 134.799616 112.166832 136.0715 113.104466 137.009135 
C 114.042101 137.946769 115.313985 138.473601 116.64 138.473601 
L 116.64 138.473601 
z
" clip-path="url(#p35113fac4e)" style="fill: none; stroke: #ff0000"/>
   </g>
   <g id="PathCollection_32">
    <path d="M 205.92 106.318397 
C 207.246016 106.318397 208.517899 105.791566 209.455534 104.853931 
C 210.393168 103.916297 210.92 102.644413 210.92 101.318397 
C 210.92 99.992382 210.393168 98.720498 209.455534 97.782864 
C 208.517899 96.845229 207.246016 96.318397 205.92 96.318397 
C 204.593985 96.318397 203.322101 96.845229 202.384466 97.782864 
C 201.446832 98.720498 200.92 99.992382 200.92 101.318397 
C 200.92 102.644413 201.446832 103.916297 202.384466 104.853931 
C 203.322101 105.791566 204.593985 106.318397 205.92 106.318397 
L 205.92 106.318397 
z
" clip-path="url(#p35113fac4e)" style="fill: none; stroke: #ff0000"/>
   </g>
   <g id="PathCollection_33">
    <path d="M 295.2 121.841596 
C 296.526016 121.841596 297.797899 121.314764 298.735534 120.37713 
C 299.673168 119.439495 300.2 118.167611 300.2 116.841596 
C 300.2 115.51558 299.673168 114.243697 298.735534 113.306062 
C 297.797899 112.368427 296.526016 111.841596 295.2 111.841596 
C 293.873985 111.841596 292.602101 112.368427 291.664466 113.306062 
C 290.726832 114.243697 290.2 115.51558 290.2 116.841596 
C 290.2 118.167611 290.726832 119.439495 291.664466 120.37713 
C 292.602101 121.314764 293.873985 121.841596 295.2 121.841596 
L 295.2 121.841596 
z
" clip-path="url(#p35113fac4e)" style="fill: none; stroke: #ff0000"/>
   </g>
   <g id="PathCollection_34">
    <path d="M 384.48 163.976001 
C 385.806016 163.976001 387.077899 163.449169 388.015534 162.511535 
C 388.953168 161.5739 389.48 160.302016 389.48 158.976001 
C 389.48 157.649985 388.953168 156.378101 388.015534 155.440467 
C 387.077899 154.502832 385.806016 153.976001 384.48 153.976001 
C 383.153985 153.976001 381.882101 154.502832 380.944466 155.440467 
C 380.006832 156.378101 379.48 157.649985 379.48 158.976001 
C 379.48 160.302016 380.006832 161.5739 380.944466 162.511535 
C 381.882101 163.449169 383.153985 163.976001 384.48 163.976001 
L 384.48 163.976001 
z
" clip-path="url(#p35113fac4e)" style="fill: none; stroke: #ff0000"/>
   </g>
   <g id="PathCollection_35">
    <path d="M 473.76 148.4528 
C 475.086015 148.4528 476.357899 147.925969 477.295534 146.988334 
C 478.233168 146.0507 478.76 144.778816 478.76 143.4528 
C 478.76 142.126785 478.233168 140.854901 477.295534 139.917266 
C 476.357899 138.979632 475.086015 138.4528 473.76 138.4528 
C 472.433985 138.4528 471.162101 138.979632 470.224466 139.917266 
C 469.286832 140.854901 468.76 142.126785 468.76 143.4528 
C 468.76 144.778816 469.286832 146.0507 470.224466 146.988334 
C 471.162101 147.925969 472.433985 148.4528 473.76 148.4528 
L 473.76 148.4528 
z
" clip-path="url(#p35113fac4e)" style="fill: none; stroke: #ff0000"/>
   </g>
   <g id="PathCollection_36">
    <defs>
     <path id="me16d07c9a0" d="M -3.535534 3.535534 
L 3.535534 -3.535534 
M -3.535534 -3.535534 
L 3.535534 3.535534 
" style="stroke: #000000; stroke-width: 1.5"/>
    </defs>
    <g clip-path="url(#p35113fac4e)">
     <use xlink:href="#me16d07c9a0" x="116.64" y="168.9552" style="stroke: #000000; stroke-width: 1.5"/>
    </g>
   </g>
   <g id="PathCollection_37">
    <g clip-path="url(#p35113fac4e)">
     <use xlink:href="#me16d07c9a0" x="205.92" y="135.691201" style="stroke: #000000; stroke-width: 1.5"/>
    </g>
   </g>
   <g id="PathCollection_38">
    <g clip-path="url(#p35113fac4e)">
     <use xlink:href="#me16d07c9a0" x="295.2" y="142.343998" style="stroke: #000000; stroke-width: 1.5"/>
    </g>
   </g>
   <g id="PathCollection_39">
    <g clip-path="url(#p35113fac4e)">
     <use xlink:href="#me16d07c9a0" x="384.48" y="174.499199" style="stroke: #000000; stroke-width: 1.5"/>
    </g>
   </g>
   <g id="PathCollection_40">
    <g clip-path="url(#p35113fac4e)">
     <use xlink:href="#me16d07c9a0" x="473.76" y="184.4784" style="stroke: #000000; stroke-width: 1.5"/>
    </g>
   </g>
   <g id="matplotlib.axis_1">
    <g id="xtick_1">
     <g id="line2d_1">
      <defs>
       <path id="m5a42dc3e55" d="M 0 0 
L 0 3.5 
" style="stroke: #000000; stroke-width: 0.8"/>
      </defs>
      <g>
       <use xlink:href="#m5a42dc3e55" x="116.64" y="192.24" style="stroke: #000000; stroke-width: 0.8"/>
      </g>
     </g>
     <g id="line2d_2">
      <defs>
       <path id="m7e5196bbf1" d="M 0 0 
L 0 -3.5 
" style="stroke: #000000; stroke-width: 0.8"/>
      </defs>
      <g>
       <use xlink:href="#m7e5196bbf1" x="116.64" y="25.92" style="stroke: #000000; stroke-width: 0.8"/>
      </g>
     </g>
     <g id="text_1">
      <!-- Annual -->
      <g transform="translate(99.260312 206.838437)scale(0.1 -0.1)">
       <defs>
        <path id="DejaVuSans-41" d="M 2188 4044 
L 1331 1722 
L 3047 1722 
L 2188 4044 
z
M 1831 4666 
L 2547 4666 
L 4325 0 
L 3669 0 
L 3244 1197 
L 1141 1197 
L 716 0 
L 50 0 
L 1831 4666 
z
" transform="scale(0.015625)"/>
        <path id="DejaVuSans-6e" d="M 3513 2113 
L 3513 0 
L 2938 0 
L 2938 2094 
Q 2938 2591 2744 2837 
Q 2550 3084 2163 3084 
Q 1697 3084 1428 2787 
Q 1159 2491 1159 1978 
L 1159 0 
L 581 0 
L 581 3500 
L 1159 3500 
L 1159 2956 
Q 1366 3272 1645 3428 
Q 1925 3584 2291 3584 
Q 2894 3584 3203 3211 
Q 3513 2838 3513 2113 
z
" transform="scale(0.015625)"/>
        <path id="DejaVuSans-75" d="M 544 1381 
L 544 3500 
L 1119 3500 
L 1119 1403 
Q 1119 906 1312 657 
Q 1506 409 1894 409 
Q 2359 409 2629 706 
Q 2900 1003 2900 1516 
L 2900 3500 
L 3475 3500 
L 3475 0 
L 2900 0 
L 2900 538 
Q 2691 219 2414 64 
Q 2138 -91 1772 -91 
Q 1169 -91 856 284 
Q 544 659 544 1381 
z
M 1991 3584 
L 1991 3584 
z
" transform="scale(0.015625)"/>
        <path id="DejaVuSans-61" d="M 2194 1759 
Q 1497 1759 1228 1600 
Q 959 1441 959 1056 
Q 959 750 1161 570 
Q 1363 391 1709 391 
Q 2188 391 2477 730 
Q 2766 1069 2766 1631 
L 2766 1759 
L 2194 1759 
z
M 3341 1997 
L 3341 0 
L 2766 0 
L 2766 531 
Q 2569 213 2275 61 
Q 1981 -91 1556 -91 
Q 1019 -91 701 211 
Q 384 513 384 1019 
Q 384 1609 779 1909 
Q 1175 2209 1959 2209 
L 2766 2209 
L 2766 2266 
Q 2766 2663 2505 2880 
Q 2244 3097 1772 3097 
Q 1472 3097 1187 3025 
Q 903 2953 641 2809 
L 641 3341 
Q 956 3463 1253 3523 
Q 1550 3584 1831 3584 
Q 2591 3584 2966 3190 
Q 3341 2797 3341 1997 
z
" transform="scale(0.015625)"/>
        <path id="DejaVuSans-6c" d="M 603 4863 
L 1178 4863 
L 1178 0 
L 603 0 
L 603 4863 
z
" transform="scale(0.015625)"/>
       </defs>
       <use xlink:href="#DejaVuSans-41"/>
       <use xlink:href="#DejaVuSans-6e" x="68.408203"/>
       <use xlink:href="#DejaVuSans-6e" x="131.787109"/>
       <use xlink:href="#DejaVuSans-75" x="195.166016"/>
       <use xlink:href="#DejaVuSans-61" x="258.544922"/>
       <use xlink:href="#DejaVuSans-6c" x="319.824219"/>
      </g>
     </g>
    </g>
    <g id="xtick_2">
     <g id="line2d_3">
      <g>
       <use xlink:href="#m5a42dc3e55" x="205.92" y="192.24" style="stroke: #000000; stroke-width: 0.8"/>
      </g>
     </g>
     <g id="line2d_4">
      <g>
       <use xlink:href="#m7e5196bbf1" x="205.92" y="25.92" style="stroke: #000000; stroke-width: 0.8"/>
      </g>
     </g>
     <g id="text_2">
      <!-- Winter -->
      <g transform="translate(189.43875 206.838437)scale(0.1 -0.1)">
       <defs>
        <path id="DejaVuSans-57" d="M 213 4666 
L 850 4666 
L 1831 722 
L 2809 4666 
L 3519 4666 
L 4500 722 
L 5478 4666 
L 6119 4666 
L 4947 0 
L 4153 0 
L 3169 4050 
L 2175 0 
L 1381 0 
L 213 4666 
z
" transform="scale(0.015625)"/>
        <path id="DejaVuSans-69" d="M 603 3500 
L 1178 3500 
L 1178 0 
L 603 0 
L 603 3500 
z
M 603 4863 
L 1178 4863 
L 1178 4134 
L 603 4134 
L 603 4863 
z
" transform="scale(0.015625)"/>
        <path id="DejaVuSans-74" d="M 1172 4494 
L 1172 3500 
L 2356 3500 
L 2356 3053 
L 1172 3053 
L 1172 1153 
Q 1172 725 1289 603 
Q 1406 481 1766 481 
L 2356 481 
L 2356 0 
L 1766 0 
Q 1100 0 847 248 
Q 594 497 594 1153 
L 594 3053 
L 172 3053 
L 172 3500 
L 594 3500 
L 594 4494 
L 1172 4494 
z
" transform="scale(0.015625)"/>
        <path id="DejaVuSans-65" d="M 3597 1894 
L 3597 1613 
L 953 1613 
Q 991 1019 1311 708 
Q 1631 397 2203 397 
Q 2534 397 2845 478 
Q 3156 559 3463 722 
L 3463 178 
Q 3153 47 2828 -22 
Q 2503 -91 2169 -91 
Q 1331 -91 842 396 
Q 353 884 353 1716 
Q 353 2575 817 3079 
Q 1281 3584 2069 3584 
Q 2775 3584 3186 3129 
Q 3597 2675 3597 1894 
z
M 3022 2063 
Q 3016 2534 2758 2815 
Q 2500 3097 2075 3097 
Q 1594 3097 1305 2825 
Q 1016 2553 972 2059 
L 3022 2063 
z
" transform="scale(0.015625)"/>
        <path id="DejaVuSans-72" d="M 2631 2963 
Q 2534 3019 2420 3045 
Q 2306 3072 2169 3072 
Q 1681 3072 1420 2755 
Q 1159 2438 1159 1844 
L 1159 0 
L 581 0 
L 581 3500 
L 1159 3500 
L 1159 2956 
Q 1341 3275 1631 3429 
Q 1922 3584 2338 3584 
Q 2397 3584 2469 3576 
Q 2541 3569 2628 3553 
L 2631 2963 
z
" transform="scale(0.015625)"/>
       </defs>
       <use xlink:href="#DejaVuSans-57"/>
       <use xlink:href="#DejaVuSans-69" x="96.626953"/>
       <use xlink:href="#DejaVuSans-6e" x="124.410156"/>
       <use xlink:href="#DejaVuSans-74" x="187.789062"/>
       <use xlink:href="#DejaVuSans-65" x="226.998047"/>
       <use xlink:href="#DejaVuSans-72" x="288.521484"/>
      </g>
     </g>
    </g>
    <g id="xtick_3">
     <g id="line2d_5">
      <g>
       <use xlink:href="#m5a42dc3e55" x="295.2" y="192.24" style="stroke: #000000; stroke-width: 0.8"/>
      </g>
     </g>
     <g id="line2d_6">
      <g>
       <use xlink:href="#m7e5196bbf1" x="295.2" y="25.92" style="stroke: #000000; stroke-width: 0.8"/>
      </g>
     </g>
     <g id="text_3">
      <!-- Spring -->
      <g transform="translate(279.064063 206.838437)scale(0.1 -0.1)">
       <defs>
        <path id="DejaVuSans-53" d="M 3425 4513 
L 3425 3897 
Q 3066 4069 2747 4153 
Q 2428 4238 2131 4238 
Q 1616 4238 1336 4038 
Q 1056 3838 1056 3469 
Q 1056 3159 1242 3001 
Q 1428 2844 1947 2747 
L 2328 2669 
Q 3034 2534 3370 2195 
Q 3706 1856 3706 1288 
Q 3706 609 3251 259 
Q 2797 -91 1919 -91 
Q 1588 -91 1214 -16 
Q 841 59 441 206 
L 441 856 
Q 825 641 1194 531 
Q 1563 422 1919 422 
Q 2459 422 2753 634 
Q 3047 847 3047 1241 
Q 3047 1584 2836 1778 
Q 2625 1972 2144 2069 
L 1759 2144 
Q 1053 2284 737 2584 
Q 422 2884 422 3419 
Q 422 4038 858 4394 
Q 1294 4750 2059 4750 
Q 2388 4750 2728 4690 
Q 3069 4631 3425 4513 
z
" transform="scale(0.015625)"/>
        <path id="DejaVuSans-70" d="M 1159 525 
L 1159 -1331 
L 581 -1331 
L 581 3500 
L 1159 3500 
L 1159 2969 
Q 1341 3281 1617 3432 
Q 1894 3584 2278 3584 
Q 2916 3584 3314 3078 
Q 3713 2572 3713 1747 
Q 3713 922 3314 415 
Q 2916 -91 2278 -91 
Q 1894 -91 1617 61 
Q 1341 213 1159 525 
z
M 3116 1747 
Q 3116 2381 2855 2742 
Q 2594 3103 2138 3103 
Q 1681 3103 1420 2742 
Q 1159 2381 1159 1747 
Q 1159 1113 1420 752 
Q 1681 391 2138 391 
Q 2594 391 2855 752 
Q 3116 1113 3116 1747 
z
" transform="scale(0.015625)"/>
        <path id="DejaVuSans-67" d="M 2906 1791 
Q 2906 2416 2648 2759 
Q 2391 3103 1925 3103 
Q 1463 3103 1205 2759 
Q 947 2416 947 1791 
Q 947 1169 1205 825 
Q 1463 481 1925 481 
Q 2391 481 2648 825 
Q 2906 1169 2906 1791 
z
M 3481 434 
Q 3481 -459 3084 -895 
Q 2688 -1331 1869 -1331 
Q 1566 -1331 1297 -1286 
Q 1028 -1241 775 -1147 
L 775 -588 
Q 1028 -725 1275 -790 
Q 1522 -856 1778 -856 
Q 2344 -856 2625 -561 
Q 2906 -266 2906 331 
L 2906 616 
Q 2728 306 2450 153 
Q 2172 0 1784 0 
Q 1141 0 747 490 
Q 353 981 353 1791 
Q 353 2603 747 3093 
Q 1141 3584 1784 3584 
Q 2172 3584 2450 3431 
Q 2728 3278 2906 2969 
L 2906 3500 
L 3481 3500 
L 3481 434 
z
" transform="scale(0.015625)"/>
       </defs>
       <use xlink:href="#DejaVuSans-53"/>
       <use xlink:href="#DejaVuSans-70" x="63.476562"/>
       <use xlink:href="#DejaVuSans-72" x="126.953125"/>
       <use xlink:href="#DejaVuSans-69" x="168.066406"/>
       <use xlink:href="#DejaVuSans-6e" x="195.849609"/>
       <use xlink:href="#DejaVuSans-67" x="259.228516"/>
      </g>
     </g>
    </g>
    <g id="xtick_4">
     <g id="line2d_7">
      <g>
       <use xlink:href="#m5a42dc3e55" x="384.48" y="192.24" style="stroke: #000000; stroke-width: 0.8"/>
      </g>
     </g>
     <g id="line2d_8">
      <g>
       <use xlink:href="#m7e5196bbf1" x="384.48" y="25.92" style="stroke: #000000; stroke-width: 0.8"/>
      </g>
     </g>
     <g id="text_4">
      <!-- Summer -->
      <g transform="translate(363.264375 206.838437)scale(0.1 -0.1)">
       <defs>
        <path id="DejaVuSans-6d" d="M 3328 2828 
Q 3544 3216 3844 3400 
Q 4144 3584 4550 3584 
Q 5097 3584 5394 3201 
Q 5691 2819 5691 2113 
L 5691 0 
L 5113 0 
L 5113 2094 
Q 5113 2597 4934 2840 
Q 4756 3084 4391 3084 
Q 3944 3084 3684 2787 
Q 3425 2491 3425 1978 
L 3425 0 
L 2847 0 
L 2847 2094 
Q 2847 2600 2669 2842 
Q 2491 3084 2119 3084 
Q 1678 3084 1418 2786 
Q 1159 2488 1159 1978 
L 1159 0 
L 581 0 
L 581 3500 
L 1159 3500 
L 1159 2956 
Q 1356 3278 1631 3431 
Q 1906 3584 2284 3584 
Q 2666 3584 2933 3390 
Q 3200 3197 3328 2828 
z
" transform="scale(0.015625)"/>
       </defs>
       <use xlink:href="#DejaVuSans-53"/>
       <use xlink:href="#DejaVuSans-75" x="63.476562"/>
       <use xlink:href="#DejaVuSans-6d" x="126.855469"/>
       <use xlink:href="#DejaVuSans-6d" x="224.267578"/>
       <use xlink:href="#DejaVuSans-65" x="321.679688"/>
       <use xlink:href="#DejaVuSans-72" x="383.203125"/>
      </g>
     </g>
    </g>
    <g id="xtick_5">
     <g id="line2d_9">
      <g>
       <use xlink:href="#m5a42dc3e55" x="473.76" y="192.24" style="stroke: #000000; stroke-width: 0.8"/>
      </g>
     </g>
     <g id="line2d_10">
      <g>
       <use xlink:href="#m7e5196bbf1" x="473.76" y="25.92" style="stroke: #000000; stroke-width: 0.8"/>
      </g>
     </g>
     <g id="text_5">
      <!-- Autumn -->
      <g transform="translate(454.002969 206.838437)scale(0.1 -0.1)">
       <use xlink:href="#DejaVuSans-41"/>
       <use xlink:href="#DejaVuSans-75" x="68.408203"/>
       <use xlink:href="#DejaVuSans-74" x="131.787109"/>
       <use xlink:href="#DejaVuSans-75" x="170.996094"/>
       <use xlink:href="#DejaVuSans-6d" x="234.375"/>
       <use xlink:href="#DejaVuSans-6e" x="331.787109"/>
      </g>
     </g>
    </g>
   </g>
   <g id="matplotlib.axis_2">
    <g id="ytick_1">
     <g id="line2d_11">
      <defs>
       <path id="mf82d5e558c" d="M 0 0 
L -3.5 0 
" style="stroke: #000000; stroke-width: 0.8"/>
      </defs>
      <g>
       <use xlink:href="#mf82d5e558c" x="72" y="192.24" style="stroke: #000000; stroke-width: 0.8"/>
      </g>
     </g>
     <g id="line2d_12">
      <defs>
       <path id="m28ed1e4326" d="M 0 0 
L 3.5 0 
" style="stroke: #000000; stroke-width: 0.8"/>
      </defs>
      <g>
       <use xlink:href="#m28ed1e4326" x="518.4" y="192.24" style="stroke: #000000; stroke-width: 0.8"/>
      </g>
     </g>
     <g id="text_6">
      <!-- 0.00 -->
      <g transform="translate(42.734375 196.039219)scale(0.1 -0.1)">
       <defs>
        <path id="DejaVuSans-30" d="M 2034 4250 
Q 1547 4250 1301 3770 
Q 1056 3291 1056 2328 
Q 1056 1369 1301 889 
Q 1547 409 2034 409 
Q 2525 409 2770 889 
Q 3016 1369 3016 2328 
Q 3016 3291 2770 3770 
Q 2525 4250 2034 4250 
z
M 2034 4750 
Q 2819 4750 3233 4129 
Q 3647 3509 3647 2328 
Q 3647 1150 3233 529 
Q 2819 -91 2034 -91 
Q 1250 -91 836 529 
Q 422 1150 422 2328 
Q 422 3509 836 4129 
Q 1250 4750 2034 4750 
z
" transform="scale(0.015625)"/>
        <path id="DejaVuSans-2e" d="M 684 794 
L 1344 794 
L 1344 0 
L 684 0 
L 684 794 
z
" transform="scale(0.015625)"/>
       </defs>
       <use xlink:href="#DejaVuSans-30"/>
       <use xlink:href="#DejaVuSans-2e" x="63.623047"/>
       <use xlink:href="#DejaVuSans-30" x="95.410156"/>
       <use xlink:href="#DejaVuSans-30" x="159.033203"/>
      </g>
     </g>
    </g>
    <g id="ytick_2">
     <g id="line2d_13">
      <g>
       <use xlink:href="#mf82d5e558c" x="72" y="136.8" style="stroke: #000000; stroke-width: 0.8"/>
      </g>
     </g>
     <g id="line2d_14">
      <g>
       <use xlink:href="#m28ed1e4326" x="518.4" y="136.8" style="stroke: #000000; stroke-width: 0.8"/>
      </g>
     </g>
     <g id="text_7">
      <!-- 0.05 -->
      <g transform="translate(42.734375 140.599219)scale(0.1 -0.1)">
       <defs>
        <path id="DejaVuSans-35" d="M 691 4666 
L 3169 4666 
L 3169 4134 
L 1269 4134 
L 1269 2991 
Q 1406 3038 1543 3061 
Q 1681 3084 1819 3084 
Q 2600 3084 3056 2656 
Q 3513 2228 3513 1497 
Q 3513 744 3044 326 
Q 2575 -91 1722 -91 
Q 1428 -91 1123 -41 
Q 819 9 494 109 
L 494 744 
Q 775 591 1075 516 
Q 1375 441 1709 441 
Q 2250 441 2565 725 
Q 2881 1009 2881 1497 
Q 2881 1984 2565 2268 
Q 2250 2553 1709 2553 
Q 1456 2553 1204 2497 
Q 953 2441 691 2322 
L 691 4666 
z
" transform="scale(0.015625)"/>
       </defs>
       <use xlink:href="#DejaVuSans-30"/>
       <use xlink:href="#DejaVuSans-2e" x="63.623047"/>
       <use xlink:href="#DejaVuSans-30" x="95.410156"/>
       <use xlink:href="#DejaVuSans-35" x="159.033203"/>
      </g>
     </g>
    </g>
    <g id="ytick_3">
     <g id="line2d_15">
      <g>
       <use xlink:href="#mf82d5e558c" x="72" y="81.36" style="stroke: #000000; stroke-width: 0.8"/>
      </g>
     </g>
     <g id="line2d_16">
      <g>
       <use xlink:href="#m28ed1e4326" x="518.4" y="81.36" style="stroke: #000000; stroke-width: 0.8"/>
      </g>
     </g>
     <g id="text_8">
      <!-- 0.10 -->
      <g transform="translate(42.734375 85.159219)scale(0.1 -0.1)">
       <defs>
        <path id="DejaVuSans-31" d="M 794 531 
L 1825 531 
L 1825 4091 
L 703 3866 
L 703 4441 
L 1819 4666 
L 2450 4666 
L 2450 531 
L 3481 531 
L 3481 0 
L 794 0 
L 794 531 
z
" transform="scale(0.015625)"/>
       </defs>
       <use xlink:href="#DejaVuSans-30"/>
       <use xlink:href="#DejaVuSans-2e" x="63.623047"/>
       <use xlink:href="#DejaVuSans-31" x="95.410156"/>
       <use xlink:href="#DejaVuSans-30" x="159.033203"/>
      </g>
     </g>
    </g>
    <g id="ytick_4">
     <g id="line2d_17">
      <g>
       <use xlink:href="#mf82d5e558c" x="72" y="25.92" style="stroke: #000000; stroke-width: 0.8"/>
      </g>
     </g>
     <g id="line2d_18">
      <g>
       <use xlink:href="#m28ed1e4326" x="518.4" y="25.92" style="stroke: #000000; stroke-width: 0.8"/>
      </g>
     </g>
     <g id="text_9">
      <!-- 0.15 -->
      <g transform="translate(42.734375 29.719219)scale(0.1 -0.1)">
       <use xlink:href="#DejaVuSans-30"/>
       <use xlink:href="#DejaVuSans-2e" x="63.623047"/>
       <use xlink:href="#DejaVuSans-31" x="95.410156"/>
       <use xlink:href="#DejaVuSans-35" x="159.033203"/>
      </g>
     </g>
    </g>
    <g id="text_10">
     <!-- IAV [$\sigma$, Pg C time$^{-1}$] -->
     <g transform="translate(36.634375 158.78)rotate(-90)scale(0.1 -0.1)">
      <defs>
       <path id="DejaVuSans-49" d="M 628 4666 
L 1259 4666 
L 1259 0 
L 628 0 
L 628 4666 
z
" transform="scale(0.015625)"/>
       <path id="DejaVuSans-56" d="M 1831 0 
L 50 4666 
L 709 4666 
L 2188 738 
L 3669 4666 
L 4325 4666 
L 2547 0 
L 1831 0 
z
" transform="scale(0.015625)"/>
       <path id="DejaVuSans-20" transform="scale(0.015625)"/>
       <path id="DejaVuSans-5b" d="M 550 4863 
L 1875 4863 
L 1875 4416 
L 1125 4416 
L 1125 -397 
L 1875 -397 
L 1875 -844 
L 550 -844 
L 550 4863 
z
" transform="scale(0.015625)"/>
       <path id="DejaVuSans-Oblique-3c3" d="M 2219 3044 
Q 1744 3044 1422 2700 
Q 1081 2341 969 1747 
Q 844 1119 1044 756 
Q 1241 397 1706 397 
Q 2166 397 2503 759 
Q 2844 1122 2966 1747 
Q 3075 2319 2881 2700 
Q 2700 3044 2219 3044 
z
M 2309 3503 
L 4219 3500 
L 4106 2925 
L 3463 2925 
Q 3706 2438 3575 1747 
Q 3406 888 2884 400 
Q 2359 -91 1609 -91 
Q 856 -91 525 400 
Q 194 888 363 1747 
Q 528 2609 1050 3097 
Q 1484 3503 2309 3503 
z
" transform="scale(0.015625)"/>
       <path id="DejaVuSans-2c" d="M 750 794 
L 1409 794 
L 1409 256 
L 897 -744 
L 494 -744 
L 750 256 
L 750 794 
z
" transform="scale(0.015625)"/>
       <path id="DejaVuSans-50" d="M 1259 4147 
L 1259 2394 
L 2053 2394 
Q 2494 2394 2734 2622 
Q 2975 2850 2975 3272 
Q 2975 3691 2734 3919 
Q 2494 4147 2053 4147 
L 1259 4147 
z
M 628 4666 
L 2053 4666 
Q 2838 4666 3239 4311 
Q 3641 3956 3641 3272 
Q 3641 2581 3239 2228 
Q 2838 1875 2053 1875 
L 1259 1875 
L 1259 0 
L 628 0 
L 628 4666 
z
" transform="scale(0.015625)"/>
       <path id="DejaVuSans-43" d="M 4122 4306 
L 4122 3641 
Q 3803 3938 3442 4084 
Q 3081 4231 2675 4231 
Q 1875 4231 1450 3742 
Q 1025 3253 1025 2328 
Q 1025 1406 1450 917 
Q 1875 428 2675 428 
Q 3081 428 3442 575 
Q 3803 722 4122 1019 
L 4122 359 
Q 3791 134 3420 21 
Q 3050 -91 2638 -91 
Q 1578 -91 968 557 
Q 359 1206 359 2328 
Q 359 3453 968 4101 
Q 1578 4750 2638 4750 
Q 3056 4750 3426 4639 
Q 3797 4528 4122 4306 
z
" transform="scale(0.015625)"/>
       <path id="DejaVuSans-2212" d="M 678 2272 
L 4684 2272 
L 4684 1741 
L 678 1741 
L 678 2272 
z
" transform="scale(0.015625)"/>
       <path id="DejaVuSans-5d" d="M 1947 4863 
L 1947 -844 
L 622 -844 
L 622 -397 
L 1369 -397 
L 1369 4416 
L 622 4416 
L 622 4863 
L 1947 4863 
z
" transform="scale(0.015625)"/>
      </defs>
      <use xlink:href="#DejaVuSans-49" transform="translate(0 0.684375)"/>
      <use xlink:href="#DejaVuSans-41" transform="translate(29.492188 0.684375)"/>
      <use xlink:href="#DejaVuSans-56" transform="translate(97.900391 0.684375)"/>
      <use xlink:href="#DejaVuSans-20" transform="translate(166.308594 0.684375)"/>
      <use xlink:href="#DejaVuSans-5b" transform="translate(198.095703 0.684375)"/>
      <use xlink:href="#DejaVuSans-Oblique-3c3" transform="translate(237.109375 0.684375)"/>
      <use xlink:href="#DejaVuSans-2c" transform="translate(300.488281 0.684375)"/>
      <use xlink:href="#DejaVuSans-20" transform="translate(332.275391 0.684375)"/>
      <use xlink:href="#DejaVuSans-50" transform="translate(364.0625 0.684375)"/>
      <use xlink:href="#DejaVuSans-67" transform="translate(424.365234 0.684375)"/>
      <use xlink:href="#DejaVuSans-20" transform="translate(487.841797 0.684375)"/>
      <use xlink:href="#DejaVuSans-43" transform="translate(519.628906 0.684375)"/>
      <use xlink:href="#DejaVuSans-20" transform="translate(589.453125 0.684375)"/>
      <use xlink:href="#DejaVuSans-74" transform="translate(621.240234 0.684375)"/>
      <use xlink:href="#DejaVuSans-69" transform="translate(660.449219 0.684375)"/>
      <use xlink:href="#DejaVuSans-6d" transform="translate(688.232422 0.684375)"/>
      <use xlink:href="#DejaVuSans-65" transform="translate(785.644531 0.684375)"/>
      <use xlink:href="#DejaVuSans-2212" transform="translate(848.125 38.965625)scale(0.7)"/>
      <use xlink:href="#DejaVuSans-31" transform="translate(906.777344 38.965625)scale(0.7)"/>
      <use xlink:href="#DejaVuSans-5d" transform="translate(954.047852 0.684375)"/>
     </g>
    </g>
   </g>
   <g id="line2d_19">
    <path d="M 94.32 162.302399 
L 138.96 162.302399 
L 138.96 156.758398 
L 94.32 156.758398 
L 94.32 162.302399 
" clip-path="url(#p35113fac4e)" style="fill: none; stroke: #000000; stroke-width: 0.5; stroke-linecap: square"/>
   </g>
   <g id="line2d_20">
    <path d="M 116.64 162.302399 
L 116.64 171.172801 
" clip-path="url(#p35113fac4e)" style="fill: none; stroke: #000000; stroke-width: 0.5; stroke-linecap: square"/>
   </g>
   <g id="line2d_21">
    <path d="M 116.64 156.758398 
L 116.64 146.779199 
" clip-path="url(#p35113fac4e)" style="fill: none; stroke: #000000; stroke-width: 0.5; stroke-linecap: square"/>
   </g>
   <g id="line2d_22">
    <path d="M 105.48 171.172801 
L 127.8 171.172801 
" clip-path="url(#p35113fac4e)" style="fill: none; stroke: #000000; stroke-width: 0.5; stroke-linecap: square"/>
   </g>
   <g id="line2d_23">
    <path d="M 105.48 146.779199 
L 127.8 146.779199 
" clip-path="url(#p35113fac4e)" style="fill: none; stroke: #000000; stroke-width: 0.5; stroke-linecap: square"/>
   </g>
   <g id="line2d_24"/>
   <g id="line2d_25">
    <path d="M 183.6 123.494401 
L 228.24 123.494401 
L 228.24 113.515197 
L 183.6 113.515197 
L 183.6 123.494401 
" clip-path="url(#p35113fac4e)" style="fill: none; stroke: #000000; stroke-width: 0.5; stroke-linecap: square"/>
   </g>
   <g id="line2d_26">
    <path d="M 205.92 123.494401 
L 205.92 141.2352 
" clip-path="url(#p35113fac4e)" style="fill: none; stroke: #000000; stroke-width: 0.5; stroke-linecap: square"/>
   </g>
   <g id="line2d_27">
    <path d="M 205.92 113.515197 
L 205.92 102.4272 
" clip-path="url(#p35113fac4e)" style="fill: none; stroke: #000000; stroke-width: 0.5; stroke-linecap: square"/>
   </g>
   <g id="line2d_28">
    <path d="M 194.76 141.2352 
L 217.08 141.2352 
" clip-path="url(#p35113fac4e)" style="fill: none; stroke: #000000; stroke-width: 0.5; stroke-linecap: square"/>
   </g>
   <g id="line2d_29">
    <path d="M 194.76 102.4272 
L 217.08 102.4272 
" clip-path="url(#p35113fac4e)" style="fill: none; stroke: #000000; stroke-width: 0.5; stroke-linecap: square"/>
   </g>
   <g id="line2d_30"/>
   <g id="line2d_31">
    <path d="M 272.88 132.641999 
L 317.52 132.641999 
L 317.52 122.385599 
L 272.88 122.385599 
L 272.88 132.641999 
" clip-path="url(#p35113fac4e)" style="fill: none; stroke: #000000; stroke-width: 0.5; stroke-linecap: square"/>
   </g>
   <g id="line2d_32">
    <path d="M 295.2 132.641999 
L 295.2 142.343998 
" clip-path="url(#p35113fac4e)" style="fill: none; stroke: #000000; stroke-width: 0.5; stroke-linecap: square"/>
   </g>
   <g id="line2d_33">
    <path d="M 295.2 122.385599 
L 295.2 111.297601 
" clip-path="url(#p35113fac4e)" style="fill: none; stroke: #000000; stroke-width: 0.5; stroke-linecap: square"/>
   </g>
   <g id="line2d_34">
    <path d="M 284.04 142.343998 
L 306.36 142.343998 
" clip-path="url(#p35113fac4e)" style="fill: none; stroke: #000000; stroke-width: 0.5; stroke-linecap: square"/>
   </g>
   <g id="line2d_35">
    <path d="M 284.04 111.297601 
L 306.36 111.297601 
" clip-path="url(#p35113fac4e)" style="fill: none; stroke: #000000; stroke-width: 0.5; stroke-linecap: square"/>
   </g>
   <g id="line2d_36"/>
   <g id="line2d_37">
    <path d="M 362.16 161.193599 
L 406.8 161.193599 
L 406.8 154.540798 
L 362.16 154.540798 
L 362.16 161.193599 
" clip-path="url(#p35113fac4e)" style="fill: none; stroke: #000000; stroke-width: 0.5; stroke-linecap: square"/>
   </g>
   <g id="line2d_38">
    <path d="M 384.48 161.193599 
L 384.48 166.7376 
" clip-path="url(#p35113fac4e)" style="fill: none; stroke: #000000; stroke-width: 0.5; stroke-linecap: square"/>
   </g>
   <g id="line2d_39">
    <path d="M 384.48 154.540798 
L 384.48 144.561598 
" clip-path="url(#p35113fac4e)" style="fill: none; stroke: #000000; stroke-width: 0.5; stroke-linecap: square"/>
   </g>
   <g id="line2d_40">
    <path d="M 373.32 166.7376 
L 395.64 166.7376 
" clip-path="url(#p35113fac4e)" style="fill: none; stroke: #000000; stroke-width: 0.5; stroke-linecap: square"/>
   </g>
   <g id="line2d_41">
    <path d="M 373.32 144.561598 
L 395.64 144.561598 
" clip-path="url(#p35113fac4e)" style="fill: none; stroke: #000000; stroke-width: 0.5; stroke-linecap: square"/>
   </g>
   <g id="line2d_42"/>
   <g id="line2d_43">
    <path d="M 451.44 167.8464 
L 496.08 167.8464 
L 496.08 163.411199 
L 451.44 163.411199 
L 451.44 167.8464 
" clip-path="url(#p35113fac4e)" style="fill: none; stroke: #000000; stroke-width: 0.5; stroke-linecap: square"/>
   </g>
   <g id="line2d_44">
    <path d="M 473.76 167.8464 
L 473.76 173.390399 
" clip-path="url(#p35113fac4e)" style="fill: none; stroke: #000000; stroke-width: 0.5; stroke-linecap: square"/>
   </g>
   <g id="line2d_45">
    <path d="M 473.76 163.411199 
L 473.76 156.758398 
" clip-path="url(#p35113fac4e)" style="fill: none; stroke: #000000; stroke-width: 0.5; stroke-linecap: square"/>
   </g>
   <g id="line2d_46">
    <path d="M 462.6 173.390399 
L 484.92 173.390399 
" clip-path="url(#p35113fac4e)" style="fill: none; stroke: #000000; stroke-width: 0.5; stroke-linecap: square"/>
   </g>
   <g id="line2d_47">
    <path d="M 462.6 156.758398 
L 484.92 156.758398 
" clip-path="url(#p35113fac4e)" style="fill: none; stroke: #000000; stroke-width: 0.5; stroke-linecap: square"/>
   </g>
   <g id="line2d_48"/>
   <g id="line2d_49">
    <path d="M 94.32 160.084801 
L 138.96 160.084801 
" clip-path="url(#p35113fac4e)" style="fill: none; stroke: #808080; stroke-width: 0.5; stroke-linecap: square"/>
   </g>
   <g id="line2d_50">
    <path d="M 183.6 117.950398 
L 228.24 117.950398 
" clip-path="url(#p35113fac4e)" style="fill: none; stroke: #808080; stroke-width: 0.5; stroke-linecap: square"/>
   </g>
   <g id="line2d_51">
    <path d="M 272.88 127.929602 
L 317.52 127.929602 
" clip-path="url(#p35113fac4e)" style="fill: none; stroke: #808080; stroke-width: 0.5; stroke-linecap: square"/>
   </g>
   <g id="line2d_52">
    <path d="M 362.16 157.867201 
L 406.8 157.867201 
" clip-path="url(#p35113fac4e)" style="fill: none; stroke: #808080; stroke-width: 0.5; stroke-linecap: square"/>
   </g>
   <g id="line2d_53">
    <path d="M 451.44 165.6288 
L 496.08 165.6288 
" clip-path="url(#p35113fac4e)" style="fill: none; stroke: #808080; stroke-width: 0.5; stroke-linecap: square"/>
   </g>
   <g id="patch_3">
    <path d="M 72 192.24 
L 72 25.92 
" style="fill: none; stroke: #000000; stroke-width: 0.8; stroke-linejoin: miter; stroke-linecap: square"/>
   </g>
   <g id="patch_4">
    <path d="M 518.4 192.24 
L 518.4 25.92 
" style="fill: none; stroke: #000000; stroke-width: 0.8; stroke-linejoin: miter; stroke-linecap: square"/>
   </g>
   <g id="patch_5">
    <path d="M 72 192.24 
L 518.4 192.24 
" style="fill: none; stroke: #000000; stroke-width: 0.8; stroke-linejoin: miter; stroke-linecap: square"/>
   </g>
   <g id="patch_6">
    <path d="M 72 25.92 
L 518.4 25.92 
" style="fill: none; stroke: #000000; stroke-width: 0.8; stroke-linejoin: miter; stroke-linecap: square"/>
   </g>
   <g id="text_11">
    <!-- North Atlantic Basin -->
    <g transform="translate(245.367188 19.92)scale(0.1 -0.1)">
     <defs>
      <path id="DejaVuSans-4e" d="M 628 4666 
L 1478 4666 
L 3547 763 
L 3547 4666 
L 4159 4666 
L 4159 0 
L 3309 0 
L 1241 3903 
L 1241 0 
L 628 0 
L 628 4666 
z
" transform="scale(0.015625)"/>
      <path id="DejaVuSans-6f" d="M 1959 3097 
Q 1497 3097 1228 2736 
Q 959 2375 959 1747 
Q 959 1119 1226 758 
Q 1494 397 1959 397 
Q 2419 397 2687 759 
Q 2956 1122 2956 1747 
Q 2956 2369 2687 2733 
Q 2419 3097 1959 3097 
z
M 1959 3584 
Q 2709 3584 3137 3096 
Q 3566 2609 3566 1747 
Q 3566 888 3137 398 
Q 2709 -91 1959 -91 
Q 1206 -91 779 398 
Q 353 888 353 1747 
Q 353 2609 779 3096 
Q 1206 3584 1959 3584 
z
" transform="scale(0.015625)"/>
      <path id="DejaVuSans-68" d="M 3513 2113 
L 3513 0 
L 2938 0 
L 2938 2094 
Q 2938 2591 2744 2837 
Q 2550 3084 2163 3084 
Q 1697 3084 1428 2787 
Q 1159 2491 1159 1978 
L 1159 0 
L 581 0 
L 581 4863 
L 1159 4863 
L 1159 2956 
Q 1366 3272 1645 3428 
Q 1925 3584 2291 3584 
Q 2894 3584 3203 3211 
Q 3513 2838 3513 2113 
z
" transform="scale(0.015625)"/>
      <path id="DejaVuSans-63" d="M 3122 3366 
L 3122 2828 
Q 2878 2963 2633 3030 
Q 2388 3097 2138 3097 
Q 1578 3097 1268 2742 
Q 959 2388 959 1747 
Q 959 1106 1268 751 
Q 1578 397 2138 397 
Q 2388 397 2633 464 
Q 2878 531 3122 666 
L 3122 134 
Q 2881 22 2623 -34 
Q 2366 -91 2075 -91 
Q 1284 -91 818 406 
Q 353 903 353 1747 
Q 353 2603 823 3093 
Q 1294 3584 2113 3584 
Q 2378 3584 2631 3529 
Q 2884 3475 3122 3366 
z
" transform="scale(0.015625)"/>
      <path id="DejaVuSans-42" d="M 1259 2228 
L 1259 519 
L 2272 519 
Q 2781 519 3026 730 
Q 3272 941 3272 1375 
Q 3272 1813 3026 2020 
Q 2781 2228 2272 2228 
L 1259 2228 
z
M 1259 4147 
L 1259 2741 
L 2194 2741 
Q 2656 2741 2882 2914 
Q 3109 3088 3109 3444 
Q 3109 3797 2882 3972 
Q 2656 4147 2194 4147 
L 1259 4147 
z
M 628 4666 
L 2241 4666 
Q 2963 4666 3353 4366 
Q 3744 4066 3744 3513 
Q 3744 3084 3544 2831 
Q 3344 2578 2956 2516 
Q 3422 2416 3680 2098 
Q 3938 1781 3938 1306 
Q 3938 681 3513 340 
Q 3088 0 2303 0 
L 628 0 
L 628 4666 
z
" transform="scale(0.015625)"/>
      <path id="DejaVuSans-73" d="M 2834 3397 
L 2834 2853 
Q 2591 2978 2328 3040 
Q 2066 3103 1784 3103 
Q 1356 3103 1142 2972 
Q 928 2841 928 2578 
Q 928 2378 1081 2264 
Q 1234 2150 1697 2047 
L 1894 2003 
Q 2506 1872 2764 1633 
Q 3022 1394 3022 966 
Q 3022 478 2636 193 
Q 2250 -91 1575 -91 
Q 1294 -91 989 -36 
Q 684 19 347 128 
L 347 722 
Q 666 556 975 473 
Q 1284 391 1588 391 
Q 1994 391 2212 530 
Q 2431 669 2431 922 
Q 2431 1156 2273 1281 
Q 2116 1406 1581 1522 
L 1381 1569 
Q 847 1681 609 1914 
Q 372 2147 372 2553 
Q 372 3047 722 3315 
Q 1072 3584 1716 3584 
Q 2034 3584 2315 3537 
Q 2597 3491 2834 3397 
z
" transform="scale(0.015625)"/>
     </defs>
     <use xlink:href="#DejaVuSans-4e"/>
     <use xlink:href="#DejaVuSans-6f" x="74.804688"/>
     <use xlink:href="#DejaVuSans-72" x="135.986328"/>
     <use xlink:href="#DejaVuSans-74" x="177.099609"/>
     <use xlink:href="#DejaVuSans-68" x="216.308594"/>
     <use xlink:href="#DejaVuSans-20" x="279.6875"/>
     <use xlink:href="#DejaVuSans-41" x="311.474609"/>
     <use xlink:href="#DejaVuSans-74" x="378.132812"/>
     <use xlink:href="#DejaVuSans-6c" x="417.341797"/>
     <use xlink:href="#DejaVuSans-61" x="445.125"/>
     <use xlink:href="#DejaVuSans-6e" x="506.404297"/>
     <use xlink:href="#DejaVuSans-74" x="569.783203"/>
     <use xlink:href="#DejaVuSans-69" x="608.992188"/>
     <use xlink:href="#DejaVuSans-63" x="636.775391"/>
     <use xlink:href="#DejaVuSans-20" x="691.755859"/>
     <use xlink:href="#DejaVuSans-42" x="723.542969"/>
     <use xlink:href="#DejaVuSans-61" x="792.146484"/>
     <use xlink:href="#DejaVuSans-73" x="853.425781"/>
     <use xlink:href="#DejaVuSans-69" x="905.525391"/>
     <use xlink:href="#DejaVuSans-6e" x="933.308594"/>
    </g>
   </g>
   <g id="text_12">
    <!-- a) -->
    <g transform="translate(72 19.92)scale(0.1 -0.1)">
     <defs>
      <path id="DejaVuSans-29" d="M 513 4856 
L 1013 4856 
Q 1481 4119 1714 3412 
Q 1947 2706 1947 2009 
Q 1947 1309 1714 600 
Q 1481 -109 1013 -844 
L 513 -844 
Q 928 -128 1133 580 
Q 1338 1288 1338 2009 
Q 1338 2731 1133 3434 
Q 928 4138 513 4856 
z
" transform="scale(0.015625)"/>
     </defs>
     <use xlink:href="#DejaVuSans-61"/>
     <use xlink:href="#DejaVuSans-29" x="61.279297"/>
    </g>
   </g>
  </g>
 </g>
 <defs>
  <clipPath id="p35113fac4e">
   <rect x="72" y="25.92" width="446.4" height="166.32"/>
  </clipPath>
 </defs>
</svg>
